<svg width="86" height="57" fill="none" xmlns="http://www.w3.org/2000/svg"><path d="M85.45 20.02c.008-.222.033-.438.033-.663 0-.075-.01-.148-.01-.221 0-.148.01-.294.01-.441l-.031.022C85.117 8.828 77.134.911 67.312.911c-10.035 0-18.171 8.257-18.171 18.446 0 9.295 6.78 16.963 15.591 18.238-2.19 7.37-8.918 12.73-16.896 12.73v6.586c20.369-.002 36.925-16.386 37.614-36.892zm-47.137 0c.008-.222.034-.438.034-.663 0-.075-.011-.148-.011-.221.001-.148.01-.294.01-.441l-.032.022C37.978 8.828 29.995.911 20.174.911 10.14.91 2.005 9.168 2.005 19.357c0 9.295 6.78 16.963 15.59 18.238-2.19 7.37-8.918 12.73-16.894 12.73v6.586c20.369-.002 36.922-16.386 37.612-36.892z" fill="#E3E3E3"/></svg>