<?xml version="1.0" encoding="utf-8"?>
<!-- Generator: Adobe Illustrator 23.0.4, SVG Export Plug-In . SVG Version: 6.00 Build 0)  -->
<svg version="1.1" id="Layer_1" xmlns="http://www.w3.org/2000/svg" xmlns:xlink="http://www.w3.org/1999/xlink" x="0px" y="0px"
	 viewBox="0 0 1330 281" style="enable-background:new 0 0 1330 281;" xml:space="preserve">
<style type="text/css">
	.st0{fill:#FFFFFF;}
</style>
<title>header bg words</title>
<desc>Created with Sketch.</desc>
<g id="Home">
	<g id="Desktop-hd" transform="translate(-110.000000, 0.000000)">
		<g id="header-bg-words" transform="translate(110.800000, -46.400000)">
			<path id="WEBDESIGNER" class="st0" d="M217.2,325.4l-33.4-150h27.6l18.2,93.4l18.4-93.4h25.4l18.6,93.4l18.2-93.4h27.6l-33.2,150
				h-23.8l-20-90.6l-20,90.6H217.2z M354,325.4v-150h67.8v24.4h-40.4v37.8h40.4V262h-40.4v39h40.4v24.4H354z M445,325.4v-150h40.8
				c26.6,0,45.6,14.6,45.6,37V225c0,9-3.6,15.8-10.2,22c11,6.4,15.4,16.4,15.4,27v14.4c0,22.4-19,37-45.6,37H445z M472.4,237.2h13.4
				c12.4,0,18.2-7.2,18.2-15.4v-6.6c0-9.4-7-15.4-18.2-15.4h-13.4V237.2z M472.4,300.6H491c11.2,0,18.2-6.4,18.2-16.2v-6.6
				c0-9.8-7-16.2-18.2-16.2h-18.6V300.6z M594.2,175.4h45.4c26.6,0,45.6,15.4,45.6,41.8v66.4c0,26.4-19,41.8-45.6,41.8h-45.4V175.4z
				 M621.6,300.2h18c11.2,0,18.2-7.2,18.2-21v-57.6c0-13.8-7-21.2-18.2-21.2h-18V300.2z M707.8,325.4v-150h67.8v24.4h-40.4v37.8
				h40.4V262h-40.4v39h40.4v24.4H707.8z M796,289.8v-10.6h27.4v6.6c0,9,6.6,15.8,17.8,15.8c10.8,0,17.8-6.4,17.8-14.8v-3
				c0-9.8-11.8-14.6-27.4-23.8c-16.2-9.6-35.6-19.4-35.6-41.4V211c0-22,18.6-37,45.2-37c26.4,0,45,15,45,37v10.6H859v-6.2
				c0-9.4-7-16.2-17.8-16.2c-11,0-17.8,6.4-17.8,14.6v3.2c0,9.8,10.2,13.8,27,23.6c15.6,9.2,35.8,19.6,35.8,41.6v7.6
				c0,22-18.6,37-45,37C814.6,326.8,796,311.8,796,289.8z M908.6,325.4v-150H936v150H908.6z M958.6,285.4v-70
				c0-26,19-41.4,45.6-41.4s45.4,14.6,45.4,40v12.6h-27.2v-8.4c0-12.6-7.2-19-18.2-19s-18,7.2-18,20.6V281c0,13.4,7,20.6,18,20.6
				s18.2-5.6,18.2-19V270h-18.2v-25.2h45.4v42c0,26-18.8,40-45.4,40S958.6,311.4,958.6,285.4z M1067.2,325.4v-150h24.8l45.6,90v-90
				h26.6v150h-24.8l-45.6-90.4v90.4H1067.2z M1189.4,325.4v-150h67.8v24.4h-40.4v37.8h40.4V262h-40.4v39h40.4v24.4H1189.4z
				 M1280.6,325.4v-150h45.6c26.6,0,45.6,16.6,45.6,39v15c0,14-6.4,23-18.4,31.8l17.2,64.2h-26.8l-15.2-57H1308v57H1280.6z
				 M1308,243.2h18.2c11,0,18-8.4,18-18.2v-6.2c0-9.8-7-18.4-18-18.4H1308V243.2z"/>
			<path id="DEVELOPER" class="st0" d="M0,1.4h45.4C72,1.4,91,16.8,91,43.2v66.4c0,26.4-19,41.8-45.6,41.8H0V1.4z M27.4,126.2h18
				c11.2,0,18.2-7.2,18.2-21V47.6c0-13.8-7-21.2-18.2-21.2h-18V126.2z M113.6,151.4V1.4h67.8v24.4H141v37.8h40.4V88H141v39h40.4
				v24.4H113.6z M234.4,151.4l-38.8-150h27.8L247.6,108L272.2,1.4H300l-39,150H234.4z M316,151.4V1.4h67.8v24.4h-40.4v37.8h40.4V88
				h-40.4v39h40.4v24.4H316z M407,151.4V1.4h27.4v124.8h40.4v25.2H407z M494.2,111V41.8c0-26.4,19-41.8,45.6-41.8
				c26.6,0,45.8,15.4,45.8,41.8V111c0,26.4-19.2,41.8-45.8,41.8C513.2,152.8,494.2,137.4,494.2,111z M521.8,106.6c0,13.8,7,21,18,21
				c11.2,0,18.2-7.2,18.2-21V46.2c0-13.8-7-21-18.2-21c-11,0-18,7.2-18,21V106.6z M608.2,151.4V1.4h45.6c26.6,0,45.6,17,45.6,41.4
				V61c0,24.4-19,41.4-45.6,41.4h-18.2v49H608.2z M635.6,77.2h18.2c11.2,0,18.2-8.8,18.2-20.6v-9.4c0-11.8-7-20.8-18.2-20.8h-18.2
				V77.2z M717.2,151.4V1.4H785v24.4h-40.4v37.8H785V88h-40.4v39H785v24.4H717.2z M808.4,151.4V1.4H854c26.6,0,45.6,16.6,45.6,39v15
				c0,14-6.4,23-18.4,31.8l17.2,64.2h-26.8l-15.2-57h-20.6v57H808.4z M835.8,69.2H854c11,0,18-8.4,18-18.2v-6.2
				c0-9.8-7-18.4-18-18.4h-18.2V69.2z"/>
			<path class="st0" d="M165.6,275.6l-1,3.2c-4.8,4.7-11.9,8.5-21.4,8.5c-10.8,0-16.3-3.2-21.9-9.8l-1.9-2.3
				c-9.2,7.2-20,12.1-34.5,12.1c-11.9,0-23.3-7.4-23.3-22.7c0-16.1,11.9-25.8,23.8-29.5l-1.6-1.9c-6-8-11.6-15.3-11.6-27.5
				c0-20,15-33.8,36.7-33.8c12.1,0,22.2,6,22.2,16.9c0,7.2-6.1,10.8-12.1,10.8l-1.1-1l-4.5-20.3l-1.1-0.8
				c-18.4,0-26.6,10.1-26.6,22.1c0,9.2,3.2,15.1,9,21.7l33.8,39.4c6.1-9.8,9.3-25.3,9.3-36.9l-13.5-3.2v-5h39.1v5l-15.3,3.2
				c-1.9,9.8-6.3,26.7-17.1,39.8l5.5,6.3c4,4.5,9.2,6.9,14.7,6.9c6.1,0,10.3-1.6,13.4-2.7L165.6,275.6z M116.2,271.4l-28.2-33
				c-8.9,4.3-13,11.3-13,19.6c0,13.8,12.4,18,22.7,18C104.5,276.1,111.1,274,116.2,271.4z"/>
		</g>
	</g>
</g>
</svg>
