<svg xmlns="http://www.w3.org/2000/svg" viewBox="0 0 72 47.7"><path d="M-42 17.9v-.8c-.2-6.5-5.5-11.8-12-11.8-6.6 0-12 5.5-12 12.2 0 6.1 4.5 11.2 10.3 12-1.4 4.9-5.9 8.4-11.2 8.4v4.3c13.5.1 24.4-10.7 24.9-24.3zm-31.2 0v-.8c-.2-6.5-5.5-11.8-12-11.8-6.6 0-12 5.5-12 12.2 0 6.1 4.5 11.2 10.3 12-1.4 4.9-5.9 8.4-11.2 8.4v4.3c13.6.1 24.5-10.7 24.9-24.3zM72 16.2V15c-.3-8.3-7.1-15-15.4-15C48 0 41.1 7 41.1 15.7c0 7.9 5.8 14.4 13.2 15.5C52.5 37.4 46.8 42 40 42v5.6c17.3 0 31.4-14 32-31.4zm-40.1 0V15c-.2-8.3-7-15-15.4-15C8 0 1.1 7 1.1 15.7c0 7.9 5.8 14.4 13.2 15.5C12.5 37.4 6.8 42 0 42v5.6c17.3 0 31.4-14 31.9-31.4z" fill="#e3e3e3"/></svg>