<svg width="320" height="157" fill="none" xmlns="http://www.w3.org/2000/svg"><path d="M70.438 155.009h28.381l-.331-.662-3.203-.331c-5.742-.442-6.405-.773-6.405-1.546v-32.026h37.216v31.694c0 .663-1.436 1.436-5.301 1.767l-4.417.442-.332.662h28.381l-.331-.662-2.761-.331c-5.742-.442-6.405-.773-6.405-1.546V88.86c0-.662 1.436-1.435 5.301-1.766l3.975-.442.332-.662h-28.381l.331.662 3.203.332c5.742.441 6.405.773 6.405 1.546v30.81H88.88V88.86c0-.662 1.436-1.435 5.3-1.766l4.418-.442.331-.662H70.55l.33.662 2.761.332c5.743.441 6.406.773 6.406 1.546v63.608c0 .663-1.436 1.436-5.301 1.767l-3.976.442-.331.662zm111.892 1.105c4.527 0 7.73-4.638 9.718-7.068l-.553-.331c-1.546 1.546-3.202 2.982-4.969 2.982-2.43 0-3.865-1.326-3.644-4.97l1.104-23.853c.663-12.7-4.086-16.123-13.252-16.123-8.393 0-21.092 6.626-21.092 12.147 0 2.651 1.988 4.307 4.748 4.307 2.872 0 4.749-2.098 4.749-4.307 0-2.981-2.761-4.748-2.761-5.521 0-1.325 4.749-4.086 9.166-4.086 5.742 0 11.154 3.092 10.712 14.135l-.111 4.859c-20.54 4.969-25.951 10.27-25.951 17.448 0 5.522 4.528 10.27 11.043 10.27 5.19 0 9.939-3.754 14.135-7.73v.111c.332 4.748 3.092 7.73 6.958 7.73zm-16.786-4.638c-4.307 0-7.509-3.203-7.509-8.172 0-5.411 2.429-10.16 18.11-13.915l-.662 17.559c-2.982 2.982-6.295 4.528-9.939 4.528zm29.205 3.533h23.743l-.332-.662-3.533-.111c-4.859-.11-5.191-.552-5.191-1.435v-24.295c3.092-11.264 5.411-16.234 10.16-17.228.221 4.639 2.982 6.737 5.742 6.737 3.313 0 5.301-2.871 5.301-5.522 0-2.871-2.65-5.632-6.515-5.632-7.068 0-11.817 7.178-14.798 18.553h-.111l.332-18.332-14.798 3.865-.111.442 2.54.442c3.755.552 4.528 1.877 4.528 8.724v32.025c0 1.325-1.215 1.436-4.638 1.656l-1.988.111-.331.662zm40.169 0h23.743l-.331-.662-3.534-.111c-4.859-.11-5.19-.552-5.19-1.435v-24.295c3.092-11.264 5.411-16.234 10.16-17.228.22 4.639 2.981 6.737 5.742 6.737 3.313 0 5.301-2.871 5.301-5.522 0-2.871-2.651-5.632-6.516-5.632-7.067 0-11.816 7.178-14.798 18.553h-.11l.331-18.332-14.798 3.865-.11.442 2.54.442c3.755.552 4.528 1.877 4.528 8.724v32.025c0 1.325-1.215 1.436-4.639 1.656l-1.987.111-.332.662zm50.214-57.976c3.755 0 5.411-3.203 5.411-5.411 0-2.209-1.546-5.522-5.411-5.522-3.865 0-5.522 3.313-5.522 5.522 0 2.208 1.657 5.41 5.522 5.41zm-9.828 57.976h22.086l-.331-.662-1.546-.111c-4.859-.331-5.522-.552-5.522-1.435v-45.719l-14.687 3.865-.111.442 2.54.442c3.755.552 4.528 1.877 4.528 8.613v32.136c0 1.325-1.215 1.436-4.638 1.656l-1.988.111-.331.662zm42.491 1.436c10.933 0 18-6.957 18-15.019 0-9.276-6.957-12.147-14.356-14.797-6.736-2.43-11.154-4.528-11.154-10.271 0-5.19 3.313-8.503 9.277-8.503 3.534 0 5.963 1.767 7.62 3.092l5.632 9.056.662-.111-.552-12.258-3.534 1.215c-2.871-1.325-6.074-1.988-9.718-1.988-8.503 0-15.46 5.632-15.46 13.583 0 8.172 6.626 11.485 12.81 13.583 7.73 2.54 12.258 5.743 12.258 11.706 0 5.522-4.197 9.718-10.823 9.718-5.3 0-10.049-3.534-12.92-9.718l-2.319-4.969-.663.11 1.215 13.031c4.086 1.546 8.503 2.54 14.025 2.54zM-.098 74.32h31.031l-.33-.662-4.308-.331c-5.742-.442-6.405-.773-6.405-1.546V6.295h6.957c8.614.441 13.694 5.08 18.553 15.902l.663 1.435h.662L43.412 5.301h-54.884L-16 23.632h.773l.773-1.435c4.197-7.84 9.939-15.24 18.442-15.902h7.068v65.154c0 .663-1.436 1.436-5.3 1.767l-5.523.442-.33.663z" fill="#fff" fill-opacity=".6"/><path d="M78.886 76.088l14.687-3.866.11-.552-4.306-.662c-2.32-.332-2.76-1.105-2.76-3.534V27.608h-15.24l.33.662 1.547.111c4.528.331 5.521 1.104 5.521 5.632v30.92c-3.423 3.093-7.398 5.302-12.589 5.302-6.515 0-9.828-3.203-9.828-9.718V27.608h-15.24l.332.662 1.546.111c5.632.442 5.632.773 5.632 1.436v32.135c0 4.528.883 8.172 3.313 10.602 2.208 2.208 4.859 3.202 8.613 3.202 7.84 0 14.246-5.963 18.442-9.718h.11l-.22 10.05zm40.288-.332c8.945 0 14.798-5.41 19.657-14.025l-.884-.33c-4.086 6.625-8.172 8.834-14.908 8.834-9.718 0-17.338-8.614-17.338-21.755 0-12.59 7.509-21.535 16.344-21.535 4.196 0 7.951 2.982 7.951 4.418 0 .883-2.209 1.987-2.209 5.521 0 2.54 2.099 4.638 4.97 4.638 2.54 0 4.969-2.43 4.969-5.3 0-6.074-7.067-10.16-15.902-10.16-14.467 0-24.516 11.595-24.516 25.951 0 13.252 9.497 23.743 21.866 23.743zm23.336-1.436h21.866l-.332-.662-1.546-.11c-4.859-.332-5.521-.553-5.521-1.436v-17.89l5.19-4.97 14.135 23.743.552 1.326h15.35l-.331-.663-1.215-.11c-4.638-.442-5.411-1.436-8.945-7.178l-13.804-22.75c-.11 0 2.099-2.208 2.099-2.208 8.834-8.835 11.374-12.368 16.454-12.81l2.319-.221.331-.663h-20.871l.221.663 1.435.11c4.086.332 5.853 1.326 5.853 3.093 0 2.098-3.644 6.405-7.841 10.601l-10.932 10.712V0L142.4 3.644l-.111.442 2.54.442c3.755.662 4.418 1.877 4.418 6.294v61.07c0 1.324-1.215 1.435-4.528 1.656l-1.878.11-.331.663zm71.241 1.436c8.945 0 14.908-5.41 19.877-14.025l-.773-.33c-4.196 6.625-8.613 8.834-15.35 8.834-9.718 0-17.337-8.614-17.337-21.645 0-1.657.221-4.307.441-5.963l31.694.11c.111-.773.221-.994.221-1.546 0-8.393-6.294-15.13-17.448-15.13-14.025 0-23.301 11.817-23.301 25.952 0 13.252 9.497 23.743 21.976 23.743zM200.83 41.633c1.767-7.84 7.399-14.467 13.473-14.467 6.736 0 9.607 6.847 9.607 14.246l-23.08.22zm38.109 32.687h23.743l-.332-.662-3.534-.11c-4.859-.11-5.19-.553-5.19-1.436V47.817c3.092-11.264 5.411-16.233 10.16-17.227.221 4.638 2.982 6.736 5.742 6.736 3.313 0 5.301-2.871 5.301-5.522 0-2.87-2.65-5.632-6.515-5.632-7.068 0-11.817 7.178-14.798 18.553h-.111l.332-18.332-14.798 3.865-.111.442 2.54.442c3.755.552 4.528 1.877 4.528 8.724V71.89c0 1.325-1.215 1.436-4.638 1.657l-1.988.11-.331.663z" fill="#fff" fill-opacity=".6"/></svg>