<svg width="769" height="316" fill="none" xmlns="http://www.w3.org/2000/svg"><path d="M211.84 312.787h59.445l-.694-1.387-6.708-.694c-12.028-.925-13.416-1.619-13.416-3.239v-67.078h77.95v66.385c0 1.387-3.007 3.007-11.103 3.7l-9.252.926-.694 1.387h59.445l-.693-1.387-5.783-.694c-12.028-.925-13.416-1.619-13.416-3.239V174.236c0-1.388 3.007-3.007 11.103-3.701l8.327-.925.694-1.388H307.6l.693 1.388 6.708.694c12.028.925 13.416 1.619 13.416 3.238v64.534h-77.95v-63.84c0-1.388 3.007-3.007 11.103-3.701l9.252-.925.694-1.388h-59.445l.694 1.388 5.782.694c12.028.925 13.416 1.619 13.416 3.238v133.232c0 1.387-3.007 3.007-11.103 3.7l-8.326.926-.694 1.387zm234.361 2.313c9.484 0 16.192-9.714 20.355-14.803l-1.156-.694c-3.239 3.238-6.708 6.245-10.409 6.245-5.089 0-8.096-2.775-7.633-10.408l2.313-49.962c1.388-26.6-8.558-33.771-27.757-33.771-17.579 0-44.179 13.879-44.179 25.444 0 5.551 4.164 9.021 9.946 9.021 6.014 0 9.947-4.395 9.947-9.021 0-6.245-5.783-9.946-5.783-11.565 0-2.776 9.946-8.559 19.198-8.559 12.028 0 23.362 6.477 22.437 29.607l-.232 10.178c-43.022 10.409-54.356 21.511-54.356 36.546 0 11.565 9.483 21.511 23.13 21.511 10.872 0 20.818-7.864 29.607-16.191v.231c.694 9.946 6.477 16.191 14.572 16.191zm-35.158-9.714c-9.021 0-15.728-6.708-15.728-17.117 0-11.334 5.088-21.28 37.933-29.144l-1.387 36.777c-6.246 6.245-13.185 9.484-20.818 9.484zm61.171 7.401h49.731l-.694-1.387-7.402-.232c-10.177-.231-10.871-1.156-10.871-3.007v-50.887c6.476-23.593 11.334-34.001 21.28-36.083.462 9.715 6.245 14.11 12.027 14.11 6.94 0 11.103-6.014 11.103-11.566 0-6.014-5.551-11.796-13.647-11.796-14.803 0-24.749 15.035-30.995 38.859h-.231l.694-38.397-30.995 8.096-.231.925 5.32.925c7.864 1.157 9.483 3.933 9.483 18.274v67.078c0 2.775-2.544 3.007-9.714 3.469l-4.164.232-.694 1.387zm84.137 0h49.73l-.693-1.387-7.402-.232c-10.178-.231-10.871-1.156-10.871-3.007v-50.887c6.476-23.593 11.333-34.001 21.28-36.083.462 9.715 6.245 14.11 12.027 14.11 6.939 0 11.103-6.014 11.103-11.566 0-6.014-5.551-11.796-13.647-11.796-14.803 0-24.75 15.035-30.995 38.859h-.231l.694-38.397-30.995 8.096-.231.925 5.32.925c7.864 1.157 9.483 3.933 9.483 18.274v67.078c0 2.775-2.544 3.007-9.715 3.469l-4.163.232-.694 1.387zm105.175-121.434c7.864 0 11.334-6.708 11.334-11.334 0-4.626-3.239-11.565-11.334-11.565-8.096 0-11.565 6.939-11.565 11.565 0 4.626 3.469 11.334 11.565 11.334zM640.94 312.787h46.261l-.694-1.387-3.239-.232c-10.177-.694-11.565-1.156-11.565-3.007v-95.76l-30.763 8.096-.232.925 5.32.925c7.865 1.157 9.484 3.933 9.484 18.042v67.31c0 2.775-2.544 3.007-9.715 3.469l-4.163.232-.694 1.387zm89 3.007c22.899 0 37.702-14.572 37.702-31.457 0-19.43-14.572-25.443-30.069-30.995-14.11-5.088-23.362-9.483-23.362-21.511 0-10.871 6.939-17.81 19.429-17.81 7.402 0 12.491 3.7 15.96 6.476l11.797 18.967 1.388-.231-1.157-25.675-7.402 2.544c-6.013-2.775-12.721-4.163-20.354-4.163-17.811 0-32.383 11.796-32.383 28.45 0 17.117 13.878 24.056 26.831 28.451 16.192 5.32 25.675 12.027 25.675 24.518 0 11.565-8.789 20.355-22.668 20.355-11.102 0-21.048-7.402-27.062-20.355l-4.858-10.409-1.387.232 2.544 27.293c8.558 3.239 17.81 5.32 29.376 5.32zM33.38 143.781h64.996l-.694-1.388-9.021-.694c-12.028-.925-13.416-1.619-13.416-3.238V1.298h14.572c18.042.925 28.682 10.64 38.86 33.307l1.387 3.007h1.388L124.513-.784H9.555L.07 37.612h1.62l1.619-3.007C12.1 18.183 24.127 2.685 41.938 1.298H56.74v136.469c0 1.388-3.007 3.007-11.103 3.701l-11.565.925-.694 1.388z" fill="#fff" fill-opacity=".6"/><path d="M198.814 147.482l30.764-8.096.231-1.156-9.021-1.388c-4.857-.694-5.783-2.313-5.783-7.402v-83.5h-31.92l.694 1.387 3.239.231c9.483.694 11.565 2.313 11.565 11.797v64.765c-7.171 6.477-15.498 11.103-26.369 11.103-13.647 0-20.586-6.708-20.586-20.355V45.939h-31.92l.694 1.388 3.238.231c11.797.926 11.797 1.62 11.797 3.007v67.31c0 9.483 1.85 17.116 6.939 22.205 4.626 4.626 10.177 6.708 18.042 6.708 16.422 0 29.838-12.49 38.627-20.355h.232l-.463 21.049zm84.385-.694c18.735 0 30.994-11.334 41.172-29.376l-1.851-.694c-8.558 13.879-17.116 18.505-31.226 18.505-20.355 0-36.314-18.042-36.314-45.567 0-26.369 15.728-45.105 34.233-45.105 8.789 0 16.653 6.246 16.653 9.253 0 1.85-4.626 4.163-4.626 11.565 0 5.32 4.395 9.715 10.409 9.715 5.32 0 10.409-5.09 10.409-11.103 0-12.722-14.804-21.28-33.308-21.28-30.301 0-51.35 24.287-51.35 54.357 0 27.756 19.893 49.73 45.799 49.73zm48.879-3.007h45.798l-.694-1.388-3.238-.231c-10.177-.694-11.565-1.157-11.565-3.007v-37.471l10.871-10.41 29.607 49.731 1.157 2.776h32.151l-.694-1.388-2.544-.231c-9.715-.925-11.334-3.007-18.736-15.035l-28.913-47.649c-.231 0 4.395-4.626 4.395-4.626 18.504-18.504 23.824-25.906 34.464-26.831l4.857-.463.694-1.387h-43.716l.462 1.387 3.007.232c8.559.694 12.259 2.775 12.259 6.476 0 4.395-7.633 13.416-16.422 22.206l-22.899 22.436V-11.887l-30.532 7.633-.232.925 5.32.926c7.865 1.388 9.252 3.932 9.252 13.184v127.911c0 2.776-2.544 3.007-9.483 3.47l-3.932.231-.694 1.388zm149.216 3.007c18.736 0 31.227-11.334 41.635-29.376l-1.619-.694c-8.789 13.879-18.042 18.505-32.151 18.505-20.355 0-36.315-18.042-36.315-45.336 0-3.47.463-9.02.925-12.49l66.385.231c.231-1.62.462-2.082.462-3.238 0-17.58-13.184-31.689-36.546-31.689-29.376 0-48.805 24.75-48.805 54.357 0 27.756 19.892 49.73 46.029 49.73zm-27.062-71.473c3.701-16.423 15.497-30.3 28.219-30.3 14.11 0 20.123 14.34 20.123 29.837l-48.342.463zm79.82 68.466h49.73l-.694-1.388-7.402-.231c-10.177-.231-10.871-1.157-10.871-3.007V88.268c6.477-23.593 11.334-34.002 21.28-36.084.463 9.715 6.245 14.11 12.028 14.11 6.939 0 11.103-6.014 11.103-11.565 0-6.014-5.552-11.797-13.647-11.797-14.804 0-24.75 15.035-30.995 38.86h-.231l.693-38.397-30.994 8.096-.232.925 5.32.925c7.865 1.157 9.484 3.932 9.484 18.273v67.078c0 2.776-2.545 3.007-9.715 3.47l-4.163.231-.694 1.388z" fill="#fff" fill-opacity=".6"/></svg>