<svg id="Layer_1" data-name="Layer 1" xmlns="http://www.w3.org/2000/svg" viewBox="0 0 56.01 37.12"><defs><style>.cls-1{fill:#e3e3e3;}</style></defs><title>quotes-size</title><path class="cls-1" d="M56,12.62c0-.14,0-.29,0-.43s0-.1,0-.15,0-.19,0-.29h0a12,12,0,0,0-24,.43,12.11,12.11,0,0,0,10.3,12,11.68,11.68,0,0,1-11.16,8.41V37A25,25,0,0,0,56,12.62Z"/><path class="cls-1" d="M24.85,12.62c0-.14,0-.29,0-.43s0-.1,0-.15,0-.19,0-.29h0A12.09,12.09,0,0,0,12.86,0a12.09,12.09,0,0,0-12,12.19,12.11,12.11,0,0,0,10.3,12A11.68,11.68,0,0,1,0,32.64V37A25,25,0,0,0,24.85,12.62Z"/></svg>