<svg width="86" height="57" viewBox="0 0 86 57" fill="none" xmlns="http://www.w3.org/2000/svg">
<path d="M85.4502 20.0194C85.4581 19.7981 85.4834 19.5816 85.4834 19.3571C85.4834 19.2817 85.4739 19.2095 85.4723 19.1357C85.4739 18.9882 85.4834 18.8423 85.4834 18.6947L85.4518 18.7172C85.1169 8.8284 77.134 0.910644 67.3121 0.910644C57.277 0.910644 49.1409 9.16839 49.1409 19.3571C49.1409 28.6524 55.9215 36.32 64.7323 37.595C62.5426 44.9643 55.8141 50.3256 47.8359 50.3256V56.9106C68.2047 56.909 84.7614 40.5251 85.4502 20.0194Z" fill="#E3E3E3"/>
<path d="M38.3135 20.0194C38.3214 19.7981 38.3467 19.5816 38.3467 19.3571C38.3467 19.2817 38.3356 19.2095 38.3356 19.1357C38.3372 18.9882 38.3467 18.8423 38.3467 18.6947L38.3135 18.7172C37.9786 8.8284 29.9957 0.910645 20.1754 0.910645C10.1387 0.910645 2.00413 9.16839 2.00413 19.3571C2.00413 28.6524 8.78479 36.32 17.5955 37.595C15.4059 44.9643 8.67736 50.3256 0.700772 50.3256V56.9106C21.0696 56.909 37.6231 40.5251 38.3135 20.0194Z" fill="#E3E3E3"/>
</svg>
