<svg id="Layer_1" data-name="Layer 1" xmlns="http://www.w3.org/2000/svg" viewBox="0 0 72 47.72"><defs><style>.cls-1{fill:#e3e3e3;}</style></defs><title>quotes-size</title><path class="cls-1" d="M72,16.23c0-.19,0-.37,0-.56s0-.13,0-.19,0-.25,0-.38l0,0a15.42,15.42,0,0,0-30.83.55A15.57,15.57,0,0,0,54.38,31.15,15,15,0,0,1,40,42v5.6A32.17,32.17,0,0,0,72,16.23Z"/><path class="cls-1" d="M31.94,16.23c0-.19,0-.37,0-.56s0-.13,0-.19,0-.25,0-.38l0,0A15.52,15.52,0,0,0,16.54,0,15.54,15.54,0,0,0,1.11,15.67,15.57,15.57,0,0,0,14.35,31.15,15,15,0,0,1,0,42v5.6A32.17,32.17,0,0,0,31.94,16.23Z"/></svg>