<?xml version="1.0" encoding="utf-8"?>
<!-- Generator: Adobe Illustrator 24.0.0, SVG Export Plug-In . SVG Version: 6.00 Build 0)  -->
<svg version="1.1" id="Layer_1" xmlns="http://www.w3.org/2000/svg" xmlns:xlink="http://www.w3.org/1999/xlink" x="0px" y="0px"
	 viewBox="0 0 72 47.7" style="enable-background:new 0 0 72 47.7;" xml:space="preserve">
<style type="text/css">
	.st0{fill:#E3E3E3;}
</style>
<path class="st0" d="M-42,17.9c0-0.1,0-0.3,0-0.4c0,0,0-0.1,0-0.1c0-0.1,0-0.2,0-0.3l0,0c-0.2-6.5-5.5-11.8-12-11.8
	c-6.6,0-12,5.5-12,12.2c0,6.1,4.5,11.2,10.3,12c-1.4,4.9-5.9,8.4-11.2,8.4v4.3C-53.4,42.3-42.5,31.5-42,17.9z"/>
<path class="st0" d="M-73.2,17.9c0-0.1,0-0.3,0-0.4c0,0,0-0.1,0-0.1c0-0.1,0-0.2,0-0.3l0,0c-0.2-6.5-5.5-11.8-12-11.8
	c-6.6,0-12,5.5-12,12.2c0,6.1,4.5,11.2,10.3,12c-1.4,4.9-5.9,8.4-11.2,8.4v4.3C-84.5,42.3-73.6,31.5-73.2,17.9z"/>
<path class="st0" d="M72,16.2c0-0.2,0-0.4,0-0.6c0-0.1,0-0.1,0-0.2c0-0.1,0-0.2,0-0.4l0,0C71.7,6.7,64.9,0,56.6,0
	C48,0,41.1,7,41.1,15.7c0,7.9,5.8,14.4,13.2,15.5C52.5,37.4,46.8,42,40,42v5.6C57.3,47.6,71.4,33.6,72,16.2z"/>
<path class="st0" d="M31.9,16.2c0-0.2,0-0.4,0-0.6c0-0.1,0-0.1,0-0.2c0-0.1,0-0.2,0-0.4l0,0C31.7,6.7,24.9,0,16.5,0
	C8,0,1.1,7,1.1,15.7c0,7.9,5.8,14.4,13.2,15.5C12.5,37.4,6.8,42,0,42v5.6C17.3,47.6,31.4,33.6,31.9,16.2z"/>
</svg>
