<svg width="320" height="157" viewBox="0 0 320 157" fill="none" xmlns="http://www.w3.org/2000/svg">
<path d="M70.438 155.009H98.819L98.4877 154.347L95.2851 154.016C89.5427 153.574 88.8801 153.243 88.8801 152.47V120.444H126.096V152.138C126.096 152.801 124.66 153.574 120.795 153.905L116.378 154.347L116.046 155.009H144.427L144.096 154.347L141.335 154.016C135.593 153.574 134.93 153.243 134.93 152.47V88.8608C134.93 88.1982 136.366 87.4252 140.231 87.0939L144.206 86.6522L144.538 85.9896H116.157L116.488 86.6522L119.691 86.9835C125.433 87.4252 126.096 87.7565 126.096 88.5295V119.34H88.8801V88.8608C88.8801 88.1982 90.3157 87.4252 94.1808 87.0939L98.5981 86.6522L98.9294 85.9896H70.5484L70.8797 86.6522L73.6405 86.9835C79.383 87.4252 80.0456 87.7565 80.0456 88.5295V152.138C80.0456 152.801 78.6099 153.574 74.7448 153.905L70.7693 154.347L70.438 155.009Z" fill="white" fill-opacity="0.6"/>
<path d="M182.33 156.114C186.857 156.114 190.06 151.476 192.048 149.046L191.495 148.715C189.949 150.261 188.293 151.697 186.526 151.697C184.096 151.697 182.661 150.371 182.882 146.727L183.986 122.874C184.649 110.174 179.9 106.751 170.734 106.751C162.341 106.751 149.642 113.377 149.642 118.898C149.642 121.549 151.63 123.205 154.39 123.205C157.262 123.205 159.139 121.107 159.139 118.898C159.139 115.917 156.378 114.15 156.378 113.377C156.378 112.052 161.127 109.291 165.544 109.291C171.286 109.291 176.698 112.383 176.256 123.426L176.145 128.285C155.605 133.254 150.194 138.555 150.194 145.733C150.194 151.255 154.722 156.003 161.237 156.003C166.427 156.003 171.176 152.249 175.372 148.273V148.384C175.704 153.132 178.464 156.114 182.33 156.114ZM165.544 151.476C161.237 151.476 158.035 148.273 158.035 143.304C158.035 137.893 160.464 133.144 176.145 129.389L175.483 146.948C172.501 149.93 169.188 151.476 165.544 151.476Z" fill="white" fill-opacity="0.6"/>
<path d="M194.749 155.009H218.492L218.16 154.347L214.627 154.236C209.768 154.126 209.436 153.684 209.436 152.801V128.506C212.528 117.242 214.847 112.272 219.596 111.278C219.817 115.917 222.578 118.015 225.338 118.015C228.651 118.015 230.639 115.144 230.639 112.493C230.639 109.622 227.989 106.861 224.124 106.861C217.056 106.861 212.307 114.039 209.326 125.414H209.215L209.547 107.082L194.749 110.947L194.638 111.389L197.178 111.831C200.933 112.383 201.706 113.708 201.706 120.555V152.58C201.706 153.905 200.491 154.016 197.068 154.236L195.08 154.347L194.749 155.009Z" fill="white" fill-opacity="0.6"/>
<path d="M234.918 155.009H258.661L258.33 154.347L254.796 154.236C249.937 154.126 249.606 153.684 249.606 152.801V128.506C252.698 117.242 255.017 112.272 259.766 111.278C259.986 115.917 262.747 118.015 265.508 118.015C268.821 118.015 270.809 115.144 270.809 112.493C270.809 109.622 268.158 106.861 264.293 106.861C257.226 106.861 252.477 114.039 249.495 125.414H249.385L249.716 107.082L234.918 110.947L234.808 111.389L237.348 111.831C241.103 112.383 241.876 113.708 241.876 120.555V152.58C241.876 153.905 240.661 154.016 237.237 154.236L235.25 154.347L234.918 155.009Z" fill="white" fill-opacity="0.6"/>
<path d="M285.132 97.0328C288.887 97.0328 290.543 93.8303 290.543 91.6216C290.543 89.413 288.997 86.1 285.132 86.1C281.267 86.1 279.61 89.413 279.61 91.6216C279.61 93.8303 281.267 97.0328 285.132 97.0328ZM275.304 155.009H297.39L297.059 154.347L295.513 154.236C290.654 153.905 289.991 153.684 289.991 152.801V107.082L275.304 110.947L275.193 111.389L277.733 111.831C281.488 112.383 282.261 113.708 282.261 120.444V152.58C282.261 153.905 281.046 154.016 277.623 154.236L275.635 154.347L275.304 155.009Z" fill="white" fill-opacity="0.6"/>
<path d="M317.795 156.445C328.728 156.445 335.795 149.488 335.795 141.426C335.795 132.15 328.838 129.279 321.439 126.629C314.703 124.199 310.285 122.101 310.285 116.358C310.285 111.168 313.598 107.855 319.562 107.855C323.096 107.855 325.525 109.622 327.182 110.947L332.814 120.003L333.476 119.892L332.924 107.634L329.39 108.849C326.519 107.524 323.316 106.861 319.672 106.861C311.169 106.861 304.212 112.493 304.212 120.444C304.212 128.616 310.838 131.929 317.022 134.027C324.752 136.567 329.28 139.77 329.28 145.733C329.28 151.255 325.083 155.451 318.457 155.451C313.157 155.451 308.408 151.917 305.537 145.733L303.218 140.764L302.555 140.874L303.77 153.905C307.856 155.451 312.273 156.445 317.795 156.445Z" fill="white" fill-opacity="0.6"/>
<path d="M-0.0978204 74.3206H30.9335L30.6022 73.658L26.2954 73.3267C20.5529 72.885 19.8903 72.5537 19.8903 71.7807V6.29461H26.8475C35.4612 6.73634 40.5411 11.3745 45.4001 22.1968L46.0627 23.6324H46.7253L43.4123 5.30073H-11.4723L-16 23.6324H-15.227L-14.454 22.1968C-10.2575 14.3561 -4.51509 6.95721 3.98816 6.29461H11.0558V71.4494C11.0558 72.112 9.62018 72.885 5.75506 73.2163L0.233474 73.658L-0.0978204 74.3206Z" fill="white" fill-opacity="0.6"/>
<path d="M78.8859 76.0875L93.5734 72.2224L93.6838 71.6703L89.377 71.0077C87.0579 70.6764 86.6162 69.9033 86.6162 67.4738V27.608H71.3766L71.7079 28.2705L73.2539 28.381C77.7816 28.7123 78.7755 29.4853 78.7755 34.013V64.9339C75.3521 68.026 71.3766 70.2346 66.1863 70.2346C59.6708 70.2346 56.3578 67.0321 56.3578 60.5166V27.608H41.1183L41.4496 28.2705L42.9956 28.381C48.6276 28.8227 48.6276 29.154 48.6276 29.8166V61.9522C48.6276 66.4799 49.5111 70.1242 51.9406 72.5537C54.1492 74.7623 56.7996 75.7562 60.5543 75.7562C68.3949 75.7562 74.8 69.7929 78.9964 66.0382H79.1068L78.8859 76.0875Z" fill="white" fill-opacity="0.6"/>
<path d="M119.174 75.7562C128.119 75.7562 133.972 70.3451 138.831 61.7314L137.947 61.4001C133.861 68.026 129.775 70.2346 123.039 70.2346C113.321 70.2346 105.701 61.6209 105.701 48.4796C105.701 35.8903 113.21 26.9454 122.045 26.9454C126.241 26.9454 129.996 29.927 129.996 31.3626C129.996 32.2461 127.787 33.3504 127.787 36.8842C127.787 39.4242 129.886 41.5224 132.757 41.5224C135.297 41.5224 137.726 39.0929 137.726 36.2216C137.726 30.1479 130.659 26.0619 121.824 26.0619C107.357 26.0619 97.3082 37.6572 97.3082 52.0134C97.3082 65.2652 106.805 75.7562 119.174 75.7562Z" fill="white" fill-opacity="0.6"/>
<path d="M142.51 74.3206H164.376L164.044 73.658L162.498 73.5476C157.639 73.2163 156.977 72.9954 156.977 72.112V54.222L162.167 49.2526L176.302 72.9954L176.854 74.3206H192.204L191.873 73.658L190.658 73.5476C186.02 73.1059 185.247 72.112 181.713 66.3695L167.909 43.6206C167.799 43.6206 170.008 41.4119 170.008 41.4119C178.842 32.5774 181.382 29.0436 186.462 28.6018L188.781 28.381L189.112 27.7184H168.241L168.462 28.381L169.897 28.4914C173.983 28.8227 175.75 29.8166 175.75 31.5835C175.75 33.6817 172.106 37.9885 167.909 42.185L156.977 52.8968V0L142.4 3.64425L142.289 4.08598L144.829 4.52771C148.584 5.19029 149.247 6.40505 149.247 10.8223V71.8911C149.247 73.2163 148.032 73.3267 144.719 73.5476L142.841 73.658L142.51 74.3206Z" fill="white" fill-opacity="0.6"/>
<path d="M213.751 75.7562C222.696 75.7562 228.659 70.3451 233.628 61.7314L232.855 61.4001C228.659 68.026 224.242 70.2346 217.505 70.2346C207.787 70.2346 200.168 61.6209 200.168 48.59C200.168 46.9335 200.389 44.2832 200.609 42.6267L232.303 42.7371C232.414 41.9641 232.524 41.7432 232.524 41.1911C232.524 32.7982 226.23 26.0619 215.076 26.0619C201.051 26.0619 191.775 37.8781 191.775 52.0134C191.775 65.2652 201.272 75.7562 213.751 75.7562ZM200.83 41.6328C202.597 33.7921 208.229 27.1662 214.303 27.1662C221.039 27.1662 223.91 34.013 223.91 41.4119L200.83 41.6328Z" fill="white" fill-opacity="0.6"/>
<path d="M238.939 74.3206H262.682L262.35 73.658L258.816 73.5476C253.957 73.4372 253.626 72.9954 253.626 72.112V47.817C256.718 36.5529 259.037 31.5835 263.786 30.5896C264.007 35.2277 266.768 37.326 269.528 37.326C272.841 37.326 274.829 34.4547 274.829 31.8044C274.829 28.9331 272.179 26.1723 268.314 26.1723C261.246 26.1723 256.497 33.3504 253.516 44.7249H253.405L253.737 26.3932L238.939 30.2583L238.828 30.7L241.368 31.1418C245.123 31.6939 245.896 33.0191 245.896 39.8659V71.8911C245.896 73.2163 244.681 73.3267 241.258 73.5476L239.27 73.658L238.939 74.3206Z" fill="white" fill-opacity="0.6"/>
</svg>
