<svg width="769" height="316" viewBox="0 0 769 316" fill="none" xmlns="http://www.w3.org/2000/svg">
<path d="M211.84 312.787H271.285L270.591 311.4L263.883 310.706C251.855 309.781 250.467 309.087 250.467 307.467V240.389H328.417V306.774C328.417 308.161 325.41 309.781 317.314 310.474L308.062 311.4L307.368 312.787H366.813L366.12 311.4L360.337 310.706C348.309 309.781 346.921 309.087 346.921 307.467V174.236C346.921 172.848 349.928 171.229 358.024 170.535L366.351 169.61L367.045 168.222H307.6L308.293 169.61L315.001 170.304C327.029 171.229 328.417 171.923 328.417 173.542V238.076H250.467V174.236C250.467 172.848 253.474 171.229 261.57 170.535L270.822 169.61L271.516 168.222H212.071L212.765 169.61L218.547 170.304C230.575 171.229 231.963 171.923 231.963 173.542V306.774C231.963 308.161 228.956 309.781 220.86 310.474L212.534 311.4L211.84 312.787Z" fill="white" fill-opacity="0.6"/>
<path d="M446.201 315.1C455.685 315.1 462.393 305.386 466.556 300.297L465.4 299.603C462.161 302.841 458.692 305.848 454.991 305.848C449.902 305.848 446.895 303.073 447.358 295.44L449.671 245.478C451.059 218.878 441.113 211.707 421.914 211.707C404.335 211.707 377.735 225.586 377.735 237.151C377.735 242.702 381.899 246.172 387.681 246.172C393.695 246.172 397.628 241.777 397.628 237.151C397.628 230.906 391.845 227.205 391.845 225.586C391.845 222.81 401.791 217.027 411.043 217.027C423.071 217.027 434.405 223.504 433.48 246.634L433.248 256.812C390.226 267.221 378.892 278.323 378.892 293.358C378.892 304.923 388.375 314.869 402.022 314.869C412.894 314.869 422.84 307.005 431.629 298.678V298.909C432.323 308.855 438.106 315.1 446.201 315.1ZM411.043 305.386C402.022 305.386 395.315 298.678 395.315 288.269C395.315 276.935 400.403 266.989 433.248 259.125L431.861 295.902C425.615 302.147 418.676 305.386 411.043 305.386Z" fill="white" fill-opacity="0.6"/>
<path d="M472.214 312.787H521.945L521.251 311.4L513.849 311.168C503.672 310.937 502.978 310.012 502.978 308.161V257.274C509.454 233.681 514.312 223.273 524.258 221.191C524.72 230.906 530.503 235.301 536.285 235.301C543.225 235.301 547.388 229.287 547.388 223.735C547.388 217.721 541.837 211.939 533.741 211.939C518.938 211.939 508.992 226.974 502.746 250.798H502.515L503.209 212.401L472.214 220.497L471.983 221.422L477.303 222.347C485.167 223.504 486.786 226.28 486.786 240.621V307.699C486.786 310.474 484.242 310.706 477.072 311.168L472.908 311.4L472.214 312.787Z" fill="white" fill-opacity="0.6"/>
<path d="M556.351 312.787H606.081L605.388 311.4L597.986 311.168C587.808 310.937 587.115 310.012 587.115 308.161V257.274C593.591 233.681 598.448 223.273 608.395 221.191C608.857 230.906 614.64 235.301 620.422 235.301C627.361 235.301 631.525 229.287 631.525 223.735C631.525 217.721 625.974 211.939 617.878 211.939C603.075 211.939 593.128 226.974 586.883 250.798H586.652L587.346 212.401L556.351 220.497L556.12 221.422L561.44 222.347C569.304 223.504 570.923 226.28 570.923 240.621V307.699C570.923 310.474 568.379 310.706 561.208 311.168L557.045 311.4L556.351 312.787Z" fill="white" fill-opacity="0.6"/>
<path d="M661.526 191.353C669.39 191.353 672.86 184.645 672.86 180.019C672.86 175.393 669.621 168.454 661.526 168.454C653.43 168.454 649.961 175.393 649.961 180.019C649.961 184.645 653.43 191.353 661.526 191.353ZM640.94 312.787H687.201L686.507 311.4L683.268 311.168C673.091 310.474 671.703 310.012 671.703 308.161V212.401L640.94 220.497L640.708 221.422L646.028 222.347C653.893 223.504 655.512 226.28 655.512 240.389V307.699C655.512 310.474 652.968 310.706 645.797 311.168L641.634 311.4L640.94 312.787Z" fill="white" fill-opacity="0.6"/>
<path d="M729.94 315.794C752.839 315.794 767.642 301.222 767.642 284.337C767.642 264.907 753.07 258.894 737.573 253.342C723.463 248.254 714.211 243.859 714.211 231.831C714.211 220.96 721.15 214.021 733.64 214.021C741.042 214.021 746.131 217.721 749.6 220.497L761.397 239.464L762.785 239.233L761.628 213.558L754.226 216.102C748.213 213.327 741.505 211.939 733.872 211.939C716.061 211.939 701.489 223.735 701.489 240.389C701.489 257.506 715.367 264.445 728.32 268.84C744.512 274.16 753.995 280.867 753.995 293.358C753.995 304.923 745.206 313.713 731.327 313.713C720.225 313.713 710.279 306.311 704.265 293.358L699.407 282.949L698.02 283.181L700.564 310.474C709.122 313.713 718.374 315.794 729.94 315.794Z" fill="white" fill-opacity="0.6"/>
<path d="M33.3792 143.781H98.3757L97.6818 142.393L88.6609 141.699C76.6331 140.774 75.2453 140.08 75.2453 138.461V1.29756H89.8175C107.859 2.22278 118.499 11.9376 128.677 34.6054L130.064 37.6123H131.452L124.513 -0.784165H9.55489L0.0714111 37.6123H1.69054L3.30967 34.6054C12.0992 18.1828 24.1271 2.68539 41.9375 1.29756H56.741V137.767C56.741 139.155 53.734 140.774 45.6383 141.468L34.0731 142.393L33.3792 143.781Z" fill="white" fill-opacity="0.6"/>
<path d="M198.814 147.482L229.578 139.386L229.809 138.23L220.788 136.842C215.931 136.148 215.005 134.529 215.005 129.44V45.9393H183.085L183.779 47.3271L187.018 47.5584C196.501 48.2523 198.583 49.8715 198.583 59.3549V124.12C191.412 130.597 183.085 135.223 172.214 135.223C158.567 135.223 151.628 128.515 151.628 114.868V45.9393H119.708L120.402 47.3271L123.64 47.5584C135.437 48.4836 135.437 49.1776 135.437 50.5654V117.875C135.437 127.358 137.287 134.991 142.376 140.08C147.002 144.706 152.553 146.788 160.418 146.788C176.84 146.788 190.256 134.298 199.045 126.433H199.277L198.814 147.482Z" fill="white" fill-opacity="0.6"/>
<path d="M283.199 146.788C301.934 146.788 314.193 135.454 324.371 117.412L322.52 116.718C313.962 130.597 305.404 135.223 291.294 135.223C270.939 135.223 254.98 117.181 254.98 89.6558C254.98 63.2871 270.708 44.5515 289.213 44.5515C298.002 44.5515 305.866 50.7967 305.866 53.8036C305.866 55.6541 301.24 57.9671 301.24 65.3689C301.24 70.6889 305.635 75.0836 311.649 75.0836C316.969 75.0836 322.058 69.9949 322.058 63.981C322.058 51.2593 307.254 42.701 288.75 42.701C258.449 42.701 237.4 66.988 237.4 97.0575C237.4 124.814 257.293 146.788 283.199 146.788Z" fill="white" fill-opacity="0.6"/>
<path d="M332.078 143.781H377.876L377.182 142.393L373.944 142.162C363.767 141.468 362.379 141.005 362.379 139.155V101.684L373.25 91.2749L402.857 141.005L404.014 143.781H436.165L435.471 142.393L432.927 142.162C423.212 141.237 421.593 139.155 414.191 127.127L385.278 79.4784C385.047 79.4784 389.673 74.8523 389.673 74.8523C408.177 56.348 413.497 48.9463 424.137 48.021L428.994 47.5584L429.688 46.1706H385.972L386.434 47.5584L389.441 47.7897C398 48.4836 401.7 50.5654 401.7 54.2662C401.7 58.661 394.067 67.6819 385.278 76.4715L362.379 98.908V-11.8868L331.847 -4.25374L331.615 -3.32852L336.935 -2.4033C344.8 -1.01548 346.187 1.52888 346.187 10.781V138.692C346.187 141.468 343.643 141.699 336.704 142.162L332.772 142.393L332.078 143.781Z" fill="white" fill-opacity="0.6"/>
<path d="M481.294 146.788C500.03 146.788 512.521 135.454 522.929 117.412L521.31 116.718C512.521 130.597 503.268 135.223 489.159 135.223C468.804 135.223 452.844 117.181 452.844 89.8871C452.844 86.4175 453.307 80.8662 453.769 77.3967L520.154 77.628C520.385 76.0089 520.616 75.5462 520.616 74.3897C520.616 56.8106 507.432 42.701 484.07 42.701C454.694 42.701 435.265 67.4506 435.265 97.0575C435.265 124.814 455.157 146.788 481.294 146.788ZM454.232 75.3149C457.933 58.8923 469.729 45.0141 482.451 45.0141C496.561 45.0141 502.574 59.3549 502.574 74.8523L454.232 75.3149Z" fill="white" fill-opacity="0.6"/>
<path d="M534.052 143.781H583.782L583.088 142.393L575.686 142.162C565.509 141.931 564.815 141.005 564.815 139.155V88.268C571.292 64.6749 576.149 54.2662 586.095 52.1845C586.558 61.8993 592.34 66.2941 598.123 66.2941C605.062 66.2941 609.226 60.2802 609.226 54.7289C609.226 48.7149 603.674 42.9323 595.579 42.9323C580.775 42.9323 570.829 57.9671 564.584 81.7915H564.353L565.046 43.3949L534.052 51.4906L533.82 52.4158L539.14 53.341C547.005 54.4976 548.624 57.2732 548.624 71.6141V138.692C548.624 141.468 546.079 141.699 538.909 142.162L534.746 142.393L534.052 143.781Z" fill="white" fill-opacity="0.6"/>
</svg>
