<svg width="83" height="60" fill="none" xmlns="http://www.w3.org/2000/svg"><path fill="#EE612C" fill-opacity=".3" d="M16 16h4v4h-4z"/><path d="M16.728 18.494l.232-.354c.036-.068.072-.132.104-.198h.008c-.004.074-.01.19-.01.264v.288h-.334zm.334.506h.216v-.328h.16v-.178h-.16v-.766h-.274l-.504.788v.156h.562V19zm.573.388h.23v-.308l-.006-.164c.08.068.166.108.252.108.218 0 .42-.194.42-.53 0-.304-.142-.5-.386-.5a.479.479 0 0 0-.296.128h-.008l-.016-.104h-.19v1.37zm.428-.554a.31.31 0 0 1-.198-.082v-.458c.076-.074.144-.11.216-.11.148 0 .212.116.212.312 0 .222-.1.338-.23.338zm.538.166h.24l.104-.194c.028-.06.058-.118.086-.174h.008c.034.056.068.116.1.174l.12.194h.248l-.312-.486.29-.496h-.238l-.094.186-.076.166h-.008a6.76 6.76 0 0 1-.09-.166l-.11-.186h-.248l.292.47-.312.512z" fill="#000"/><path d="M51.551 27.111v34.222H46.45V25.948l-.844.8-16.439 15.588-3.606-3.42L49 16.69l23.44 22.228-3.606 3.42-16.439-15.589-.844-.8v1.163z" stroke="#000"/></svg>