<svg width="45" height="45" viewBox="0 0 45 45" fill="none" xmlns="http://www.w3.org/2000/svg">
<path fill-rule="evenodd" clip-rule="evenodd" d="M22.5892 3.69672C12.4065 3.69672 4.15356 11.9497 4.15356 22.1324C4.15356 30.2763 9.43436 37.1873 16.7613 39.6272C17.6836 39.7935 18.0163 39.2261 18.0163 38.7381C18.0163 38.3001 18.0016 37.1393 17.996 35.6033C12.8668 36.716 11.7836 33.1302 11.7836 33.1302C10.9482 31.0009 9.73749 30.4334 9.73749 30.4334C8.06472 29.2893 9.86503 29.3151 9.86503 29.3151C11.7171 29.4445 12.6875 31.2153 12.6875 31.2153C14.3325 34.0322 17.0053 33.2189 18.0515 32.7476C18.2197 31.5554 18.7002 30.7421 19.2252 30.2818C15.1329 29.8179 10.8299 28.2357 10.8299 21.1694C10.8299 19.1602 11.5489 17.5114 12.7226 16.225C12.5359 15.7573 11.8982 13.8812 12.9056 11.3453C12.9056 11.3453 14.4527 10.8481 17.9738 13.2325C19.4488 12.824 21.0218 12.6188 22.5874 12.6114C24.1566 12.6188 25.7314 12.824 27.2009 13.2325C30.7239 10.8462 32.2691 11.3453 32.2691 11.3453C33.2765 13.8812 32.6444 15.7573 32.4521 16.225C33.6351 17.5114 34.3449 19.1583 34.3449 21.1694C34.3449 28.2542 30.0381 29.8105 25.9311 30.267C26.5872 30.8363 27.1787 31.9602 27.1787 33.6791C27.1787 36.1449 27.1565 38.1337 27.1565 38.7381C27.1565 39.2316 27.4855 39.8046 28.4264 39.6235C35.7496 37.18 41.0249 30.2744 41.0249 22.1324C41.0249 11.9497 32.7719 3.69672 22.5892 3.69672Z" fill="white"/>
</svg>
