<svg width="45" height="45" viewBox="0 0 45 45" fill="none" xmlns="http://www.w3.org/2000/svg">
<path d="M36.9675 5.5451H7.39354C6.37139 5.5451 5.54517 6.37318 5.54517 7.39348V36.9674C5.54517 37.9877 6.37139 38.8158 7.39354 38.8158H36.9675C37.9896 38.8158 38.8158 37.9877 38.8158 36.9674V7.39348C38.8158 6.37318 37.9896 5.5451 36.9675 5.5451ZM15.4136 33.8936H10.4748V18.0161H15.4136V33.8936ZM12.9442 15.8479C11.362 15.8479 10.0829 14.5652 10.0829 12.9866C10.0829 11.4081 11.3601 10.1254 12.9442 10.1254C14.5227 10.1254 15.8055 11.4063 15.8055 12.9866C15.8055 14.567 14.5227 15.8479 12.9442 15.8479ZM33.8955 33.8936H28.9622V26.1729C28.9622 24.3319 28.9289 21.9642 26.3966 21.9642C23.8274 21.9642 23.4374 23.9715 23.4374 26.0435V33.8954H18.5078V18.0179H23.2396V20.1879H23.308C23.9642 18.9402 25.576 17.6242 27.9733 17.6242C32.9713 17.6242 33.8936 20.9106 33.8936 25.1877V33.8936H33.8955Z" fill="white"/>
</svg>
